<svg width="19" height="19" viewBox="0 0 19 19" fill="none" xmlns="http://www.w3.org/2000/svg">
<path d="M1.32349 0.299988H17.688C18.2515 0.299988 18.7 0.748488 18.7 1.31199V17.688C18.7 18.24 18.2515 18.7 17.688 18.7H12.996V11.57H15.388L15.7445 8.79849H12.996V7.02749C12.996 6.22249 13.226 5.67049 14.376 5.67049H15.848V3.18649C15.595 3.15199 14.721 3.08299 13.709 3.08299C11.5815 3.08299 10.1325 4.37099 10.1325 6.75149V8.79849H7.72899V11.57H10.1325V18.7H1.32349C1.05402 18.7 0.795416 18.5938 0.6038 18.4043C0.412183 18.2148 0.303016 17.9574 0.299988 17.688V1.31199C0.299988 0.748488 0.759988 0.299988 1.32349 0.299988Z" fill="white"/>
</svg>
