<svg width="23" height="23" viewBox="0 0 23 23" fill="none" xmlns="http://www.w3.org/2000/svg">
<path fill-rule="evenodd" clip-rule="evenodd" d="M0.958336 2.71976C0.958336 2.25261 1.14391 1.80458 1.47424 1.47425C1.80457 1.14392 2.2526 0.958346 2.71975 0.958346H20.2783C20.5098 0.957968 20.7392 1.00326 20.9531 1.09162C21.1671 1.17998 21.3616 1.30968 21.5254 1.47329C21.6892 1.63691 21.8191 1.83122 21.9077 2.04511C21.9963 2.25899 22.0418 2.48825 22.0417 2.71976V20.2783C22.0419 20.5099 21.9965 20.7392 21.908 20.9532C21.8196 21.1672 21.6898 21.3617 21.5261 21.5254C21.3624 21.6892 21.168 21.8191 20.9541 21.9077C20.7402 21.9963 20.5108 22.0418 20.2793 22.0417H2.71975C2.48836 22.0417 2.25923 21.9961 2.04547 21.9075C1.8317 21.8189 1.63748 21.6891 1.4739 21.5254C1.31033 21.3618 1.1806 21.1675 1.09214 20.9537C1.00368 20.7398 0.95821 20.5107 0.958336 20.2793V2.71976ZM9.3035 8.99685H12.1584V10.4305C12.5705 9.60635 13.6246 8.8646 15.2088 8.8646C18.2457 8.8646 18.9654 10.5062 18.9654 13.5183V19.0977H15.892V14.2044C15.892 12.489 15.48 11.5211 14.4335 11.5211C12.9816 11.5211 12.3778 12.5647 12.3778 14.2044V19.0977H9.3035V8.99685ZM4.03267 18.9664H7.107V8.8646H4.03267V18.9654V18.9664ZM7.54688 5.56985C7.55267 5.83307 7.50583 6.09481 7.40911 6.33969C7.31238 6.58457 7.16771 6.80766 6.9836 6.99588C6.79949 7.18409 6.57963 7.33363 6.33694 7.43573C6.09425 7.53782 5.83361 7.59041 5.57032 7.59041C5.30702 7.59041 5.04638 7.53782 4.80369 7.43573C4.561 7.33363 4.34115 7.18409 4.15703 6.99588C3.97292 6.80766 3.82825 6.58457 3.73152 6.33969C3.6348 6.09481 3.58796 5.83307 3.59375 5.56985C3.60513 5.05316 3.81837 4.56148 4.18781 4.20009C4.55725 3.83869 5.05351 3.63633 5.57032 3.63633C6.08712 3.63633 6.58338 3.83869 6.95282 4.20009C7.32226 4.56148 7.5355 5.05316 7.54688 5.56985V5.56985Z" fill="white"/>
</svg>
