<svg width="23" height="20" viewBox="0 0 23 20" fill="none" xmlns="http://www.w3.org/2000/svg">
<path d="M7.22487 19.5625C15.9045 19.5625 20.6526 12.3707 20.6526 6.14486C20.6526 5.94361 20.6526 5.73949 20.6439 5.53824C21.5683 4.86906 22.3661 4.04058 23 3.09161C22.1365 3.47234 21.2215 3.72326 20.2846 3.83624C21.2715 3.24634 22.0106 2.31819 22.3646 1.2243C21.4374 1.7736 20.4226 2.15921 19.3646 2.36424C18.6533 1.60671 17.712 1.10487 16.6866 0.936453C15.6612 0.768035 14.6089 0.942439 13.6927 1.43265C12.7764 1.92286 12.0474 2.70152 11.6185 3.64801C11.1896 4.59451 11.0848 5.65602 11.3203 6.66811C9.444 6.57403 7.60842 6.0866 5.93262 5.23743C4.25682 4.38826 2.77823 3.19633 1.59275 1.73893C0.990926 2.77836 0.807262 4.00788 1.07905 5.17781C1.35085 6.34774 2.05772 7.37037 3.05612 8.03805C2.30796 8.01263 1.57625 7.81173 0.92 7.45155V7.51624C0.92129 8.60512 1.2985 9.66015 1.98788 10.503C2.67726 11.3459 3.63651 11.9249 4.7035 12.1421C4.2985 12.2537 3.88014 12.3093 3.46006 12.3074C3.16391 12.3083 2.86836 12.2809 2.57744 12.2255C2.87901 13.1628 3.46621 13.9823 4.25679 14.5693C5.04738 15.1562 6.00176 15.4812 6.98625 15.4987C5.3138 16.8123 3.24789 17.5247 1.12125 17.5212C0.746524 17.5228 0.372058 17.5012 0 17.4565C2.15843 18.8326 4.66512 19.5633 7.22487 19.5625Z" fill="white"/>
</svg>
