<svg width="23" height="17" viewBox="0 0 23 17" fill="none" xmlns="http://www.w3.org/2000/svg">
<path d="M22.5208 3.23588C22.3906 2.77131 22.1369 2.35071 21.7867 2.01879C21.4267 1.67667 20.9854 1.43194 20.5045 1.30771C18.7047 0.833335 11.4942 0.833335 11.4942 0.833335C8.48827 0.799135 5.48303 0.949556 2.4955 1.28375C2.0146 1.41716 1.57412 1.66736 1.21325 2.01209C0.858663 2.35325 0.60183 2.77396 0.467663 3.23492C0.145369 4.97117 -0.0112238 6.73413 -3.62564e-06 8.5C-0.0115036 10.2643 0.144705 12.0267 0.467663 13.7651C0.598955 14.2241 0.854829 14.6429 1.21037 14.9812C1.56591 15.3195 2.00866 15.5639 2.4955 15.6933C4.3192 16.1667 11.4942 16.1667 11.4942 16.1667C14.504 16.2009 17.5131 16.0505 20.5045 15.7163C20.9854 15.592 21.4267 15.3473 21.7867 15.0052C22.1368 14.6733 22.3902 14.2527 22.5199 13.7881C22.8506 12.0525 23.0114 10.2888 23 8.52205C23.0249 6.74779 22.8643 4.97579 22.5208 3.23492V3.23588ZM9.20191 11.7813V5.21963L15.2011 8.50096L9.20191 11.7813Z" fill="white"/>
</svg>
